<?xml version="1.0" standalone="no"?><!DOCTYPE svg PUBLIC "-//W3C//DTD SVG 1.1//EN" "http://www.w3.org/Graphics/SVG/1.1/DTD/svg11.dtd"><svg t="1587095194148" class="icon" viewBox="0 0 1024 1024" version="1.1" xmlns="http://www.w3.org/2000/svg" p-id="3343" xmlns:xlink="http://www.w3.org/1999/xlink" width="200" height="200"><defs><style type="text/css"></style></defs><path d="M409.6 204.8H273.07008C235.53024 204.8 204.8 235.52 204.8 273.07008V409.6c0 37.55008 30.73024 68.27008 68.27008 68.27008H409.6c37.5296 0 68.27008-30.72 68.27008-68.27008V273.07008C477.87008 235.52 447.1296 204.8 409.6 204.8z m0 204.8H273.07008V273.07008H409.6V409.6zM546.12992 238.92992h204.8V307.2h-204.8zM546.12992 375.47008H819.2v68.27008H546.12992zM546.12992 580.25984h136.54016v68.28032H546.12992zM546.12992 716.8h204.8v68.25984h-204.8zM409.6 546.14016H273.07008c-37.53984 0-68.27008 30.72-68.27008 68.25984v136.54016C204.8 788.45952 235.53024 819.2 273.07008 819.2H409.6c37.5296 0 68.27008-30.74048 68.27008-68.25984V614.4c0-37.53984-30.74048-68.25984-68.27008-68.25984z m0 204.8H273.07008V614.4H409.6v136.54016z" p-id="3344"></path></svg>