<svg t="1566291439420" class="icon" viewBox="0 0 1024 1024" version="1.1" xmlns="http://www.w3.org/2000/svg" p-id="3540" width="200" height="200"><path d="M0 0v1024h1024V0z m947.2 76.8v235.946667H76.8V76.8z m0 312.746667v236.373333H76.8V389.546667zM76.8 947.2v-244.48h870.4v244.48z" p-id="3541"></path><path d="M132.266667 152.32h76.8v85.333333H132.266667zM260.266667 152.32h76.8v85.333333H260.266667zM640 156.586667h256v76.8h-256zM132.266667 465.066667h76.8v85.333333H132.266667zM260.266667 465.066667h76.8v85.333333H260.266667zM640 469.333333h256v76.8h-256zM132.266667 777.813333h76.8v85.333334H132.266667zM260.266667 777.813333h76.8v85.333334H260.266667zM640 782.08h256v76.8h-256z" p-id="3542"></path></svg>
